ffmpeg version git-2019-12-26-b0d0d7e Copyright (c) 2000-2019 the FFmpeg developers
  built with gcc 9.2.1 (GCC) 20191125
  configuration: --enable-gpl --enable-version3 --enable-sdl2 --enable-fontconfig --enable-gnutls --enable-iconv --enable-libass --enable-libdav1d --enable-libbluray --enable-libfreetype --enable-libmp3lame --enable-libopencore-amrnb --enable-libopencore-amrwb --enable-libopenjpeg --enable-libopus --enable-libshine --enable-libsnappy --enable-libsoxr --enable-libtheora --enable-libtwolame --enable-libvpx --enable-libwavpack --enable-libwebp --enable-libx264 --enable-libx265 --enable-libxml2 --enable-libzimg --enable-lzma --enable-zlib --enable-gmp --enable-libvidstab --enable-libvorbis --enable-libvo-amrwbenc --enable-libmysofa --enable-libspeex --enable-libxvid --enable-libaom --enable-libmfx --enable-ffnvcodec --enable-cuvid --enable-d3d11va --enable-nvenc --enable-nvdec --enable-dxva2 --enable-avisynth --enable-libopenmpt --enable-amf
  libavutil      56. 37.100 / 56. 37.100
  libavcodec     58. 65.100 / 58. 65.100
  libavformat    58. 35.101 / 58. 35.101
  libavdevice    58.  9.101 / 58.  9.101
  libavfilter     7. 69.101 /  7. 69.101
  libswscale      5.  6.100 /  5.  6.100
  libswresample   3.  6.100 /  3.  6.100
  libpostproc    55.  6.100 / 55.  6.100
Splitting the commandline.
Reading option '-v' ... matched as option 'v' (set logging level) with argument 'debug'.
Reading option '-nostdin' ... matched as option 'stdin' (enable or disable interaction on standard input) with argument 0.
Reading option '-progress' ... matched as option 'progress' (write program-readable progress information) with argument 'C:/Users/alexk/AppData/Local/Temp/KritaFFmpegProgress.pT7132'.
Reading option '-r' ... matched as option 'r' (set frame rate (Hz value, fraction or abbreviation)) with argument '8'.
Reading option '-start_number' ... matched as AVOption 'start_number' with argument '0'.
Reading option '-i' ... matched as input url with argument 'C:/Users/alexk/OneDrive/Documents/crazy tennis/Art stuff/frame%04d.png'.
Reading option '-vf' ... matched as option 'vf' (set video filters) with argument 'palettegen'.
Reading option '-y' ... matched as option 'y' (overwrite output files) with argument '1'.
Reading option 'C:/Users/alexk/OneDrive/Documents/crazy tennis/Art stuff/palette.png' ... matched as output url.
Finished splitting the commandline.
Parsing a group of options: global .
Applying option v (set logging level) with argument debug.
Applying option nostdin (enable or disable interaction on standard input) with argument 0.
Applying option progress (write program-readable progress information) with argument C:/Users/alexk/AppData/Local/Temp/KritaFFmpegProgress.pT7132.
[file @ 0000021d292fa100] Setting default whitelist 'file,crypto'
Applying option y (overwrite output files) with argument 1.
Successfully parsed a group of options.
Parsing a group of options: input url C:/Users/alexk/OneDrive/Documents/crazy tennis/Art stuff/frame%04d.png.
Applying option r (set frame rate (Hz value, fraction or abbreviation)) with argument 8.
Successfully parsed a group of options.
Opening an input file: C:/Users/alexk/OneDrive/Documents/crazy tennis/Art stuff/frame%04d.png.
[image2 @ 0000021d2933b540] Opening 'C:/Users/alexk/OneDrive/Documents/crazy tennis/Art stuff/frame0000.png' for reading
[file @ 0000021d2933eb40] Setting default whitelist 'file,crypto'
[AVIOContext @ 0000021d29346d00] Statistics: 9953 bytes read, 0 seeks
[image2 @ 0000021d2933b540] Opening 'C:/Users/alexk/OneDrive/Documents/crazy tennis/Art stuff/frame0001.png' for reading
[file @ 0000021d29349780] Setting default whitelist 'file,crypto'
[AVIOContext @ 0000021d29349900] Statistics: 9088 bytes read, 0 seeks
[image2 @ 0000021d2933b540] Opening 'C:/Users/alexk/OneDrive/Documents/crazy tennis/Art stuff/frame0002.png' for reading
[file @ 0000021d29346d40] Setting default whitelist 'file,crypto'
[AVIOContext @ 0000021d29349800] Statistics: 9388 bytes read, 0 seeks
[image2 @ 0000021d2933b540] Opening 'C:/Users/alexk/OneDrive/Documents/crazy tennis/Art stuff/frame0003.png' for reading
[file @ 0000021d29349780] Setting default whitelist 'file,crypto'
[AVIOContext @ 0000021d29364b80] Statistics: 9309 bytes read, 0 seeks
Input #0, image2, from 'C:/Users/alexk/OneDrive/Documents/crazy tennis/Art stuff/frame%04d.png':
  Duration: 00:00:00.16, start: 0.000000, bitrate: N/A
    Stream #0:0, 4, 1/25: Video: png, 1 reference frame, rgba(pc), 128x128 [SAR 5905:5905 DAR 1:1], 0/1, 25 fps, 25 tbr, 25 tbn, 25 tbc
Successfully opened the file.
Parsing a group of options: output url C:/Users/alexk/OneDrive/Documents/crazy tennis/Art stuff/palette.png.
Applying option vf (set video filters) with argument palettegen.
Successfully parsed a group of options.
Opening an output file: C:/Users/alexk/OneDrive/Documents/crazy tennis/Art stuff/palette.png.
Successfully opened the file.
detected 4 logical cores
Stream mapping:
  Stream #0:0 -> #0:0 (png (native) -> png (native))
cur_dts is invalid st:0 (0) [init:0 i_done:0 finish:0] (this is harmless if it occurs once at the start per stream)
    Last message repeated 4 times
[graph 0 input from stream 0:0 @ 0000021d2934d180] Setting 'video_size' to value '128x128'
[graph 0 input from stream 0:0 @ 0000021d2934d180] Setting 'pix_fmt' to value '26'
[graph 0 input from stream 0:0 @ 0000021d2934d180] Setting 'time_base' to value '1/8'
[graph 0 input from stream 0:0 @ 0000021d2934d180] Setting 'pixel_aspect' to value '5905/5905'
[graph 0 input from stream 0:0 @ 0000021d2934d180] Setting 'sws_param' to value 'flags=2'
[graph 0 input from stream 0:0 @ 0000021d2934d180] Setting 'frame_rate' to value '8/1'
[graph 0 input from stream 0:0 @ 0000021d2934d180] w:128 h:128 pixfmt:rgba tb:1/8 fr:8/1 sar:5905/5905 sws_param:flags=2
[format @ 0000021d2935a440] Setting 'pix_fmts' to value 'rgb24|rgba|rgb48be|rgba64be|pal8|gray|ya8|gray16be|ya16be|monob'
[auto_scaler_0 @ 0000021d2935a100] Setting 'flags' to value 'bicubic'
[auto_scaler_0 @ 0000021d2935a100] w:iw h:ih flags:'bicubic' interl:0
[Parsed_palettegen_0 @ 0000021d2934da40] auto-inserting filter 'auto_scaler_0' between the filter 'graph 0 input from stream 0:0' and the filter 'Parsed_palettegen_0'
[auto_scaler_1 @ 0000021d293a5900] Setting 'flags' to value 'bicubic'
[auto_scaler_1 @ 0000021d293a5900] w:iw h:ih flags:'bicubic' interl:0
[format @ 0000021d2935a440] auto-inserting filter 'auto_scaler_1' between the filter 'Parsed_palettegen_0' and the filter 'format'
[AVFilterGraph @ 0000021d29349740] query_formats: 4 queried, 1 merged, 2 already done, 0 delayed
[auto_scaler_1 @ 0000021d293a5900] picking rgba out of 10 ref:bgra alpha:1
[swscaler @ 0000021d29793a40] Forcing full internal H chroma due to input having non subsampled chroma
[auto_scaler_0 @ 0000021d2935a100] w:128 h:128 fmt:rgba sar:5905/5905 -> w:128 h:128 fmt:bgra sar:1/1 flags:0x4
[swscaler @ 0000021d297a0fc0] Forcing full internal H chroma due to input having non subsampled chroma
[auto_scaler_1 @ 0000021d293a5900] w:16 h:16 fmt:bgra sar:1/1 -> w:16 h:16 fmt:rgba sar:1/1 flags:0x4
Output #0, image2, to 'C:/Users/alexk/OneDrive/Documents/crazy tennis/Art stuff/palette.png':
  Metadata:
    encoder         : Lavf58.35.101
    Stream #0:0, 0, 1/8: Video: png, 1 reference frame, rgba, 16x16 [SAR 1:1 DAR 1:1], 0/1, q=2-31, 200 kb/s, 8 fps, 8 tbn, 8 tbc
    Metadata:
      encoder         : Lavc58.65.100 png
cur_dts is invalid st:0 (0) [init:1 i_done:0 finish:0] (this is harmless if it occurs once at the start per stream)
    Last message repeated 3 times
[Parsed_palettegen_0 @ 0000021d2934da40] 255(+1) colors generated out of 1158 colors; ratio=0.220207
[Parsed_palettegen_0 @ 0000021d2934da40] Dupped color: FF000000
    Last message repeated 2 times
[Parsed_palettegen_0 @ 0000021d2934da40] Dupped color: FF010101
[Parsed_palettegen_0 @ 0000021d2934da40] Dupped color: FFFFFFFF
cur_dts is invalid st:0 (0) [init:1 i_done:0 finish:0] (this is harmless if it occurs once at the start per stream)
Clipping frame in rate conversion by 0.000008
cur_dts is invalid st:0 (0) [init:1 i_done:0 finish:0] (this is harmless if it occurs once at the start per stream)
[out_0_0 @ 0000021d29359c00] EOF on sink link out_0_0:default.
No more output streams to write to, finishing.
[image2 @ 0000021d2933db40] Opening 'C:/Users/alexk/OneDrive/Documents/crazy tennis/Art stuff/palette.png' for writing
[file @ 0000021d293a5f00] Setting default whitelist 'file,crypto'
[AVIOContext @ 0000021d293bc6c0] Statistics: 0 seeks, 1 writeouts
frame=    1 fps=0.0 q=-0.0 Lsize=N/A time=00:00:00.12 bitrate=N/A speed=13.6x    
[AVIOContext @ 0000021d2933b400] Statistics: 0 seeks, 1 writeouts
video:1kB audio:0kB subtitle:0kB other streams:0kB global headers:0kB muxing overhead: unknown
Input file #0 (C:/Users/alexk/OneDrive/Documents/crazy tennis/Art stuff/frame%04d.png):
  Input stream #0:0 (video): 4 packets read (37738 bytes); 4 frames decoded; 
  Total: 4 packets (37738 bytes) demuxed
Output file #0 (C:/Users/alexk/OneDrive/Documents/crazy tennis/Art stuff/palette.png):
  Output stream #0:0 (video): 1 frames encoded; 1 packets muxed (991 bytes); 
  Total: 1 packets (991 bytes) muxed
4 frames successfully decoded, 0 decoding errors
